<?xml version="1.0" standalone="no"?>
<!DOCTYPE svg PUBLIC "-//W3C//DTD SVG 20010904//EN"
 "http://www.w3.org/TR/2001/REC-SVG-20010904/DTD/svg10.dtd">
<svg version="1.0" xmlns="http://www.w3.org/2000/svg"
 width="64.000000pt" height="64.000000pt" viewBox="0 0 64.000000 64.000000"
 preserveAspectRatio="xMidYMid meet">

<g transform="translate(0.000000,64.000000) scale(0.100000,-0.100000)"
fill="#000000" stroke="none">
<path d="M232 568 c-7 -7 -12 -20 -12 -30 0 -16 -10 -18 -85 -18 l-85 0 0 -93
c0 -59 4 -97 12 -105 8 -8 48 -12 115 -12 96 0 103 1 103 20 0 17 7 20 40 20
33 0 40 -3 40 -20 0 -19 7 -20 103 -20 67 0 107 4 115 12 8 8 12 46 12 105 l0
93 -85 0 c-75 0 -85 2 -85 18 0 33 -22 42 -100 42 -46 0 -81 -5 -88 -12z m148
-38 c0 -6 -27 -10 -60 -10 -33 0 -60 4 -60 10 0 6 27 10 60 10 33 0 60 -4 60
-10z"/>
<path d="M300 300 c0 -23 4 -30 20 -30 16 0 20 7 20 30 0 23 -4 30 -20 30 -16
0 -20 -7 -20 -30z"/>
<path d="M50 207 c0 -51 5 -88 12 -95 17 -17 499 -17 516 0 7 7 12 43 12 90
l0 78 -115 0 c-96 0 -115 -3 -115 -15 0 -11 -11 -15 -40 -15 -33 0 -40 3 -40
20 0 19 -7 20 -115 20 l-115 0 0 -83z"/>
</g>
</svg>
