<?xml version="1.0" standalone="no"?>
<!DOCTYPE svg PUBLIC "-//W3C//DTD SVG 20010904//EN"
 "http://www.w3.org/TR/2001/REC-SVG-20010904/DTD/svg10.dtd">
<svg version="1.0" xmlns="http://www.w3.org/2000/svg"
 width="100.000000pt" height="100.000000pt" viewBox="0 0 100.000000 100.000000"
 preserveAspectRatio="xMidYMid meet">

<g transform="translate(0.000000,100.000000) scale(0.100000,-0.100000)"
fill="#000000" stroke="none">
<path d="M480 670 l0 -150 -150 0 c-143 0 -150 -1 -150 -20 0 -19 7 -20 150
-20 l150 0 0 -150 c0 -143 1 -150 20 -150 19 0 20 7 20 150 l0 150 150 0 c143
0 150 1 150 20 0 19 -7 20 -150 20 l-150 0 0 150 c0 143 -1 150 -20 150 -19 0
-20 -7 -20 -150z"/>
</g>
</svg>
