<?xml version="1.0" standalone="no"?>
<!DOCTYPE svg PUBLIC "-//W3C//DTD SVG 20010904//EN"
 "http://www.w3.org/TR/2001/REC-SVG-20010904/DTD/svg10.dtd">
<svg version="1.0" xmlns="http://www.w3.org/2000/svg"
 width="64.000000pt" height="64.000000pt" viewBox="0 0 64.000000 64.000000"
 preserveAspectRatio="xMidYMid meet">

<g transform="translate(0.000000,64.000000) scale(0.100000,-0.100000)"
fill="#E35125" stroke="none">
<path d="M250 562 l-65 -38 -3 -62 c-2 -38 1 -62 8 -62 5 0 10 20 10 45 0 25
3 45 6 45 3 0 28 -12 55 -27 49 -28 49 -28 49 -80 0 -29 5 -53 10 -53 6 0 10
24 10 53 0 52 0 52 49 80 27 15 52 27 55 27 3 0 6 -20 6 -45 0 -25 5 -45 10
-45 7 0 10 24 8 62 l-3 62 -65 38 c-36 21 -67 38 -70 38 -3 0 -34 -17 -70 -38z
m128 -16 c28 -16 51 -30 50 -32 -2 -1 -27 -16 -55 -33 l-53 -30 -54 31 -55 32
52 32 c29 18 54 32 57 31 3 -1 29 -15 58 -31z"/>
<path d="M113 332 l-63 -37 0 -80 0 -80 66 -38 c36 -20 70 -37 74 -37 15 0
100 52 100 61 0 13 -5 11 -42 -11 -18 -11 -36 -20 -40 -20 -5 0 -8 26 -8 58
l0 57 48 29 c26 16 41 31 35 33 -7 3 -28 -5 -47 -16 -43 -27 -51 -26 -109 8
l-49 28 56 32 55 32 41 -21 c23 -12 46 -20 52 -18 14 5 -75 58 -94 57 -7 0
-41 -17 -75 -37z m67 -185 c0 -32 -3 -57 -7 -55 -5 2 -29 14 -55 28 l-48 24 0
62 0 63 55 -32 55 -31 0 -59z"/>
<path d="M373 332 l-63 -36 0 -81 0 -81 65 -37 c35 -20 69 -37 75 -37 6 0 40
17 75 37 l65 37 0 81 0 81 -63 37 c-35 20 -70 37 -78 37 -8 -1 -42 -17 -76
-38z m138 -13 l51 -32 -54 -29 -53 -30 -52 27 c-29 15 -53 31 -53 35 0 7 89
59 102 60 4 0 31 -14 59 -31z m-73 -168 c2 -33 0 -61 -4 -61 -3 0 -28 12 -55
28 l-49 27 0 63 0 64 53 -30 52 -29 3 -62z m132 57 l0 -63 -49 -27 c-27 -16
-52 -28 -55 -28 -3 0 -6 27 -6 59 l0 59 53 30 c28 17 53 31 55 31 1 1 2 -27 2
-61z"/>
</g>
</svg>
