<svg xmlns="http://www.w3.org/2000/svg" width="20.868" height="20.869" viewBox="0 0 20.868 20.869"><defs><style>.a{fill:#fff;}</style></defs><g transform="translate(-908.92 -12575.346)"><path class="a" d="M186.354,11.226c2.786,0,3.116.011,4.216.061a5.763,5.763,0,0,1,1.938.359,3.454,3.454,0,0,1,1.98,1.981,5.775,5.775,0,0,1,.36,1.937c.05,1.1.061,1.43.061,4.217S194.9,22.9,194.848,24a5.775,5.775,0,0,1-.36,1.937,3.454,3.454,0,0,1-1.98,1.981,5.763,5.763,0,0,1-1.938.359c-1.1.05-1.43.061-4.216.061s-3.116-.011-4.216-.061a5.763,5.763,0,0,1-1.938-.359,3.454,3.454,0,0,1-1.98-1.981A5.775,5.775,0,0,1,177.86,24c-.05-1.1-.06-1.43-.06-4.216s.01-3.117.06-4.217a5.775,5.775,0,0,1,.36-1.937,3.454,3.454,0,0,1,1.98-1.981,5.764,5.764,0,0,1,1.938-.359c1.1-.05,1.43-.061,4.216-.061m0-1.88c-2.834,0-3.189.012-4.3.063a7.64,7.64,0,0,0-2.533.485,5.328,5.328,0,0,0-3.051,3.052,7.608,7.608,0,0,0-.485,2.532c-.051,1.113-.063,1.469-.063,4.3s.012,3.189.063,4.3a7.62,7.62,0,0,0,.485,2.533,5.331,5.331,0,0,0,3.051,3.051,7.641,7.641,0,0,0,2.533.485c1.113.051,1.468.063,4.3.063s3.189-.012,4.3-.063a7.64,7.64,0,0,0,2.533-.485,5.336,5.336,0,0,0,3.052-3.051,7.672,7.672,0,0,0,.485-2.533c.05-1.113.062-1.469.062-4.3s-.012-3.19-.062-4.3a7.659,7.659,0,0,0-.485-2.532,5.334,5.334,0,0,0-3.052-3.052,7.64,7.64,0,0,0-2.533-.485c-1.113-.051-1.468-.063-4.3-.063" transform="translate(733 12566)"/><path class="a" d="M186.354,14.423a5.358,5.358,0,1,0,5.358,5.358,5.358,5.358,0,0,0-5.358-5.358m0,8.836a3.478,3.478,0,1,1,3.478-3.478,3.478,3.478,0,0,1-3.478,3.478" transform="translate(733 12566)"/><path class="a" d="M193.176,14.211a1.252,1.252,0,1,1-1.252-1.252,1.253,1.253,0,0,1,1.252,1.252" transform="translate(733 12566)"/></g></svg>