<svg xmlns="http://www.w3.org/2000/svg" width="20.279" height="16.479" viewBox="0 0 20.279 16.479"><defs><style>.a{fill:#fff;}</style></defs><g transform="translate(-742.641 -12577.54)"><path class="a" d="M9.641,26.151a11.833,11.833,0,0,0,18.2-10.507A8.437,8.437,0,0,0,29.92,13.49a8.3,8.3,0,0,1-2.389.655,4.166,4.166,0,0,0,1.828-2.3,8.352,8.352,0,0,1-2.641,1.01,4.163,4.163,0,0,0-7.09,3.794A11.805,11.805,0,0,1,11.053,12.3a4.165,4.165,0,0,0,1.288,5.555,4.135,4.135,0,0,1-1.886-.521,4.167,4.167,0,0,0,3.338,4.133,4.183,4.183,0,0,1-1.879.071A4.165,4.165,0,0,0,15.8,24.428a8.359,8.359,0,0,1-6.16,1.723" transform="translate(733 12566)"/></g></svg>