<?xml version="1.0" standalone="no"?>
<!DOCTYPE svg PUBLIC "-//W3C//DTD SVG 20010904//EN"
 "http://www.w3.org/TR/2001/REC-SVG-20010904/DTD/svg10.dtd">
<svg version="1.0" xmlns="http://www.w3.org/2000/svg"
 width="512.000000pt" height="512.000000pt" viewBox="0 0 512.000000 512.000000"
 preserveAspectRatio="xMidYMid meet">

<g transform="translate(0.000000,512.000000) scale(0.100000,-0.100000)"
fill="#ffffff" stroke="none">
<path d="M1849 4654 c-192 -34 -385 -135 -529 -275 -402 -390 -416 -1039 -32
-1441 217 -227 503 -342 807 -325 448 26 825 336 942 773 23 87 26 118 26 254
0 135 -3 168 -26 252 -124 467 -530 781 -1004 777 -59 0 -142 -7 -184 -15z"/>
<path d="M3916 3390 c-69 -22 -90 -61 -96 -183 l-5 -99 -56 -23 c-49 -20 -117
-60 -186 -111 -21 -15 -25 -13 -94 26 -84 50 -132 59 -182 35 -39 -18 -56 -42
-140 -191 -63 -111 -70 -148 -37 -201 10 -18 39 -44 62 -59 24 -15 59 -37 79
-50 l35 -22 -9 -71 c-6 -45 -6 -101 0 -151 l9 -81 -79 -45 c-143 -82 -149
-131 -43 -314 91 -156 101 -165 179 -165 55 1 70 5 131 42 l69 41 57 -42 c31
-23 92 -58 134 -77 l76 -34 0 -95 c0 -168 30 -190 258 -190 138 0 151 2 183
23 52 35 69 78 69 178 l0 85 58 24 c31 13 91 47 133 76 l75 51 75 -43 c57 -34
84 -44 119 -44 72 0 97 23 176 161 80 140 87 161 74 210 -12 43 -47 78 -124
121 l-59 33 0 158 0 158 76 45 c131 76 141 128 52 286 -72 128 -98 164 -135
183 -49 25 -89 18 -174 -30 -43 -25 -80 -45 -82 -45 -2 0 -25 16 -51 37 -27
20 -85 54 -130 76 l-83 39 0 87 c0 102 -17 145 -70 176 -30 17 -55 20 -175 22
-77 1 -153 -2 -169 -7z m309 -722 c183 -95 245 -327 132 -494 -124 -185 -380
-206 -531 -44 -58 63 -85 121 -93 203 -14 150 73 289 220 350 65 27 206 19
272 -15z"/>
<path d="M841 2395 c-167 -47 -309 -162 -381 -310 -35 -70 -374 -1128 -384
-1196 -10 -66 17 -181 56 -247 42 -69 96 -116 178 -156 l65 -31 1665 0 1665 0
67 33 c85 42 168 129 199 209 14 37 23 87 25 138 4 69 0 95 -28 184 l-33 104
-66 21 c-36 12 -85 34 -108 49 -78 52 -141 165 -141 256 0 31 -5 39 -40 59
l-40 22 -42 -21 c-30 -16 -67 -24 -123 -27 -103 -5 -174 20 -245 86 -59 55
-192 278 -217 361 -34 117 6 252 99 336 27 25 54 45 59 45 5 0 9 23 9 50 l0
50 -50 0 c-34 0 -106 -18 -219 -55 -310 -100 -523 -131 -850 -122 -280 7 -491
46 -726 133 -91 34 -111 37 -220 40 -86 3 -135 0 -174 -11z"/>
</g>
</svg>
