<svg xmlns="http://www.w3.org/2000/svg" width="30.462" height="21.461" viewBox="0 0 30.462 21.461"><defs><style>.a{fill:#fff;}.b{fill:#252425;}</style></defs><g transform="translate(-653.379 -12477.825)"><g transform="translate(-55 223)"><path class="a" d="M89.769,174.176a3.829,3.829,0,0,0-2.693-2.711c-2.376-.64-11.9-.64-11.9-.64s-9.526,0-11.9.64a3.828,3.828,0,0,0-2.693,2.711,43.063,43.063,0,0,0,0,14.759,3.825,3.825,0,0,0,2.693,2.71c2.375.641,11.9.641,11.9.641s9.525,0,11.9-.641a3.826,3.826,0,0,0,2.693-2.71,43.063,43.063,0,0,0,0-14.759" transform="translate(648.435 12084)"/><path class="b" d="M72.06,186.085v-9.058l7.961,4.529Z" transform="translate(648.435 12084)"/></g></g></svg>